<svg xmlns="http://www.w3.org/2000/svg" width="191" height="23" fill="none" viewBox="0 0 191 23">
  <path fill="#000" d="m170.698 15.779 6.346-.345c.209 1.014 1.631 1.907 3.527 1.907 2.469 0 3.269-.79 3.269-1.562 0-1.032-.796-1.439-2.565-1.767l-3.672-.686c-3.87-.724-6.552-2.7-6.552-6.14 0-4.47 3.527-6.874 9.166-6.874 5.289 0 8.812 2.407 9.166 6.53h-5.993c.071-1.035-1.217-1.718-3.173-1.718-1.627 0-2.904.617-2.904 1.717 0 .687.396 1.214 2.08 1.508l3.948.686c4.224.735 6.749 2.618 6.749 6.399 0 4.125-3.877 6.874-9.519 6.874-5.289 0-9.166-2.407-9.87-6.53h-.003Zm-18.47 6.188h6.346v-8.251L167.036.653h-7.05l-3.877 6.875h-.354L151.17.653h-7.404l8.462 13.063v8.25Zm-16.697-3.27h-8.703l-1.114 3.27h-6.697L127.479.653h7.404l8.462 21.314h-6.696l-1.115-3.27h-.003Zm-1.525-4.467-2.476-7.275h-.704l-2.476 7.275h5.66-.004Zm-18.512-2.918c0 6.53-4.585 10.655-11.635 10.655h-8.812V.653h8.812c7.05 0 11.635 4.126 11.635 10.655v.004Zm-6.346 0c0-3.78-2.116-5.844-5.639-5.844h-1.762v11.345h1.762c3.527 0 5.639-2.062 5.639-5.498v-.003ZM67.196 21.967h5.639V10.28h.354l8.461 11.687h4.935V.653h-5.992v10.655h-.354L73.189.653h-5.993v21.314Zm-32.79 0h6.347L44.28 9.59h.353l2.82 12.377h6.696L59.79.653h-5.993l-3.174 12.031h-.353L47.096.655h-5.64l-3.173 12.03h-.353L35.11.655h-6.346l5.639 21.313h.003ZM23.125 11.312c0 6.188-4.585 11-11.281 11-6.697 0-11.281-4.812-11.281-11 0-6.53 4.584-11 11.28-11 6.697 0 11.282 4.47 11.282 11Zm-6.7 0c0-3.44-1.762-5.499-4.585-5.499s-4.935 2.063-4.935 5.499c0 3.094 2.116 5.498 4.935 5.498 2.82 0 4.585-2.408 4.585-5.498Z"/>
</svg>
